<svg width="413" height="119" viewBox="0 0 413 119" fill="none" xmlns="http://www.w3.org/2000/svg">
<mask id="path-1-outside-1_63_2" maskUnits="userSpaceOnUse" x="0.859985" y="0.339844" width="412" height="119" fill="black">
<rect fill="white" x="0.859985" y="0.339844" width="412" height="119"/>
<path d="M34.06 117.54C25.7533 117.54 19.22 115.907 14.46 112.64C9.79332 109.373 6.52665 104.94 4.65999 99.3399C2.79332 93.6465 1.85999 87.1132 1.85999 79.7399V39.2798C1.85999 31.5332 2.79332 24.8132 4.65999 19.1198C6.52665 13.4265 9.79332 9.03985 14.46 5.95985C19.22 2.87985 25.7533 1.33984 34.06 1.33984C41.9 1.33984 48.0133 2.69318 52.4 5.39985C56.88 8.01318 60.0533 11.7932 61.92 16.7398C63.7867 21.6865 64.72 27.4265 64.72 33.9599V43.4799H44.84V33.6799C44.84 30.5065 44.6533 27.6132 44.28 24.9998C44 22.3865 43.1133 20.3332 41.62 18.8399C40.22 17.2532 37.7467 16.4598 34.2 16.4598C30.6533 16.4598 28.04 17.2999 26.36 18.9799C24.7733 20.5665 23.7467 22.7598 23.28 25.5598C22.8133 28.2665 22.58 31.3465 22.58 34.7998V84.0798C22.58 88.1865 22.9067 91.5932 23.56 94.2999C24.2133 96.9132 25.38 98.9199 27.06 100.32C28.8333 101.627 31.2133 102.28 34.2 102.28C37.6533 102.28 40.08 101.487 41.48 99.8998C42.9733 98.2198 43.9067 96.0265 44.28 93.3199C44.6533 90.6132 44.84 87.5798 44.84 84.2198V73.9998H64.72V83.0999C64.72 89.8199 63.8333 95.7932 62.06 101.02C60.2867 106.153 57.16 110.213 52.68 113.2C48.2933 116.093 42.0867 117.54 34.06 117.54Z"/>
<path d="M102.945 117.54C94.9188 117.54 88.5255 116.047 83.7655 113.06C79.0055 110.073 75.5988 105.78 73.5455 100.18C71.4921 94.5799 70.4655 87.9532 70.4655 80.2999V37.8798C70.4655 30.2265 71.4921 23.6932 73.5455 18.2799C75.5988 12.7732 79.0055 8.57318 83.7655 5.67985C88.5255 2.78651 94.9188 1.33984 102.945 1.33984C111.159 1.33984 117.599 2.78651 122.265 5.67985C127.025 8.57318 130.432 12.7732 132.485 18.2799C134.632 23.6932 135.705 30.2265 135.705 37.8798V80.4398C135.705 87.9998 134.632 94.5799 132.485 100.18C130.432 105.687 127.025 109.98 122.265 113.06C117.599 116.047 111.159 117.54 102.945 117.54ZM102.945 102.28C106.399 102.28 108.919 101.533 110.505 100.04C112.185 98.5465 113.305 96.4932 113.865 93.8799C114.425 91.2665 114.705 88.4199 114.705 85.3399V33.1199C114.705 29.9465 114.425 27.0998 113.865 24.5798C113.305 22.0598 112.185 20.0999 110.505 18.6998C108.919 17.2065 106.399 16.4598 102.945 16.4598C99.6788 16.4598 97.2055 17.2065 95.5255 18.6998C93.8455 20.0999 92.7255 22.0598 92.1655 24.5798C91.6055 27.0998 91.3255 29.9465 91.3255 33.1199V85.3399C91.3255 88.4199 91.5588 91.2665 92.0255 93.8799C92.5855 96.4932 93.7055 98.5465 95.3855 100.04C97.0655 101.533 99.5855 102.28 102.945 102.28Z"/>
<path d="M144.032 116V2.59984H171.192C178.846 2.59984 185.286 3.53318 190.512 5.39985C195.832 7.17318 199.846 10.2532 202.552 14.6398C205.352 19.0265 206.752 24.9998 206.752 32.5599C206.752 37.1332 206.332 41.2398 205.492 44.8799C204.652 48.5199 203.206 51.6465 201.152 54.2598C199.192 56.7798 196.439 58.7398 192.892 60.1399L208.712 116H187.992L174.272 64.0598H164.752V116H144.032ZM164.752 51.0399H171.192C175.206 51.0399 178.379 50.4799 180.712 49.3599C183.139 48.1465 184.866 46.2799 185.892 43.7598C186.919 41.1465 187.432 37.8332 187.432 33.8199C187.432 28.1265 186.359 23.8799 184.212 21.0798C182.159 18.1865 178.192 16.7398 172.312 16.7398H164.752V51.0399Z"/>
<path d="M215.509 116V2.59984H248.829C255.642 2.59984 261.149 3.85984 265.349 6.37985C269.642 8.89985 272.769 12.5865 274.729 17.4398C276.782 22.1998 277.809 27.9865 277.809 34.7998C277.809 42.1732 276.549 48.1465 274.029 52.7198C271.509 57.1998 267.962 60.4665 263.389 62.5198C258.909 64.5732 253.589 65.5999 247.429 65.5999H236.229V116H215.509ZM236.229 51.0399H244.069C247.802 51.0399 250.695 50.5265 252.749 49.4999C254.895 48.3799 256.342 46.6532 257.089 44.3199C257.929 41.8932 258.349 38.6732 258.349 34.6598C258.349 30.5532 258.022 27.2399 257.369 24.7199C256.809 22.1065 255.502 20.1932 253.449 18.9799C251.489 17.7665 248.362 17.1598 244.069 17.1598H236.229V51.0399Z"/>
<path d="M313.417 117.54C305.017 117.54 298.484 116 293.817 112.92C289.15 109.84 285.93 105.453 284.157 99.7598C282.384 94.0665 281.497 87.2532 281.497 79.3198V2.59984H301.657V81.6999C301.657 85.2465 301.89 88.6065 302.357 91.7799C302.824 94.8599 303.897 97.3799 305.577 99.3399C307.35 101.207 309.964 102.14 313.417 102.14C317.057 102.14 319.67 101.207 321.257 99.3399C322.937 97.3799 324.01 94.8599 324.477 91.7799C325.037 88.6065 325.317 85.2465 325.317 81.6999V2.59984H345.337V79.3198C345.337 87.2532 344.45 94.0665 342.677 99.7598C340.904 105.453 337.684 109.84 333.017 112.92C328.444 116 321.91 117.54 313.417 117.54Z"/>
<path d="M383.194 117.54C376.38 117.54 370.687 116.233 366.114 113.62C361.54 110.913 358.087 106.993 355.754 101.86C353.42 96.7265 352.114 90.4265 351.834 82.9599L369.614 79.4599C369.8 83.8465 370.314 87.7198 371.154 91.0798C372.087 94.4398 373.44 97.0532 375.214 98.9199C377.08 100.693 379.507 101.58 382.494 101.58C385.854 101.58 388.234 100.6 389.634 98.6399C391.034 96.5865 391.734 94.0198 391.734 90.9398C391.734 85.9932 390.614 81.9332 388.374 78.7598C386.134 75.5865 383.147 72.4132 379.414 69.2399L365.134 56.6399C361.12 53.1865 357.9 49.3598 355.474 45.1598C353.14 40.8665 351.974 35.5932 351.974 29.3399C351.974 20.3799 354.587 13.4732 359.814 8.61985C365.04 3.76651 372.18 1.33984 381.234 1.33984C386.554 1.33984 390.987 2.17984 394.534 3.85984C398.08 5.44651 400.88 7.68652 402.934 10.5799C405.08 13.4732 406.667 16.7865 407.694 20.5198C408.72 24.1599 409.374 28.0332 409.654 32.1398L392.014 35.2198C391.827 31.6732 391.407 28.4999 390.754 25.6998C390.194 22.8999 389.12 20.7065 387.534 19.1198C386.04 17.5332 383.8 16.7398 380.814 16.7398C377.734 16.7398 375.354 17.7665 373.674 19.8198C372.087 21.7798 371.294 24.2532 371.294 27.2399C371.294 31.0665 372.087 34.2398 373.674 36.7598C375.26 39.1865 377.547 41.7065 380.534 44.3199L394.674 56.7799C399.34 60.6998 403.307 65.3199 406.574 70.6399C409.934 75.8665 411.614 82.2132 411.614 89.6799C411.614 95.0932 410.4 99.8999 407.974 104.1C405.64 108.3 402.327 111.613 398.034 114.04C393.834 116.373 388.887 117.54 383.194 117.54Z"/>
</mask>
<g filter="url(#filter0_i_63_2)">
<path d="M34.06 117.54C25.7533 117.54 19.22 115.907 14.46 112.64C9.79332 109.373 6.52665 104.94 4.65999 99.3399C2.79332 93.6465 1.85999 87.1132 1.85999 79.7399V39.2798C1.85999 31.5332 2.79332 24.8132 4.65999 19.1198C6.52665 13.4265 9.79332 9.03985 14.46 5.95985C19.22 2.87985 25.7533 1.33984 34.06 1.33984C41.9 1.33984 48.0133 2.69318 52.4 5.39985C56.88 8.01318 60.0533 11.7932 61.92 16.7398C63.7867 21.6865 64.72 27.4265 64.72 33.9599V43.4799H44.84V33.6799C44.84 30.5065 44.6533 27.6132 44.28 24.9998C44 22.3865 43.1133 20.3332 41.62 18.8399C40.22 17.2532 37.7467 16.4598 34.2 16.4598C30.6533 16.4598 28.04 17.2999 26.36 18.9799C24.7733 20.5665 23.7467 22.7598 23.28 25.5598C22.8133 28.2665 22.58 31.3465 22.58 34.7998V84.0798C22.58 88.1865 22.9067 91.5932 23.56 94.2999C24.2133 96.9132 25.38 98.9199 27.06 100.32C28.8333 101.627 31.2133 102.28 34.2 102.28C37.6533 102.28 40.08 101.487 41.48 99.8998C42.9733 98.2198 43.9067 96.0265 44.28 93.3199C44.6533 90.6132 44.84 87.5798 44.84 84.2198V73.9998H64.72V83.0999C64.72 89.8199 63.8333 95.7932 62.06 101.02C60.2867 106.153 57.16 110.213 52.68 113.2C48.2933 116.093 42.0867 117.54 34.06 117.54Z" fill="#EAEAEA"/>
<path d="M102.945 117.54C94.9188 117.54 88.5255 116.047 83.7655 113.06C79.0055 110.073 75.5988 105.78 73.5455 100.18C71.4921 94.5799 70.4655 87.9532 70.4655 80.2999V37.8798C70.4655 30.2265 71.4921 23.6932 73.5455 18.2799C75.5988 12.7732 79.0055 8.57318 83.7655 5.67985C88.5255 2.78651 94.9188 1.33984 102.945 1.33984C111.159 1.33984 117.599 2.78651 122.265 5.67985C127.025 8.57318 130.432 12.7732 132.485 18.2799C134.632 23.6932 135.705 30.2265 135.705 37.8798V80.4398C135.705 87.9998 134.632 94.5799 132.485 100.18C130.432 105.687 127.025 109.98 122.265 113.06C117.599 116.047 111.159 117.54 102.945 117.54ZM102.945 102.28C106.399 102.28 108.919 101.533 110.505 100.04C112.185 98.5465 113.305 96.4932 113.865 93.8799C114.425 91.2665 114.705 88.4199 114.705 85.3399V33.1199C114.705 29.9465 114.425 27.0998 113.865 24.5798C113.305 22.0598 112.185 20.0999 110.505 18.6998C108.919 17.2065 106.399 16.4598 102.945 16.4598C99.6788 16.4598 97.2055 17.2065 95.5255 18.6998C93.8455 20.0999 92.7255 22.0598 92.1655 24.5798C91.6055 27.0998 91.3255 29.9465 91.3255 33.1199V85.3399C91.3255 88.4199 91.5588 91.2665 92.0255 93.8799C92.5855 96.4932 93.7055 98.5465 95.3855 100.04C97.0655 101.533 99.5855 102.28 102.945 102.28Z" fill="#EAEAEA"/>
<path d="M144.032 116V2.59984H171.192C178.846 2.59984 185.286 3.53318 190.512 5.39985C195.832 7.17318 199.846 10.2532 202.552 14.6398C205.352 19.0265 206.752 24.9998 206.752 32.5599C206.752 37.1332 206.332 41.2398 205.492 44.8799C204.652 48.5199 203.206 51.6465 201.152 54.2598C199.192 56.7798 196.439 58.7398 192.892 60.1399L208.712 116H187.992L174.272 64.0598H164.752V116H144.032ZM164.752 51.0399H171.192C175.206 51.0399 178.379 50.4799 180.712 49.3599C183.139 48.1465 184.866 46.2799 185.892 43.7598C186.919 41.1465 187.432 37.8332 187.432 33.8199C187.432 28.1265 186.359 23.8799 184.212 21.0798C182.159 18.1865 178.192 16.7398 172.312 16.7398H164.752V51.0399Z" fill="#EAEAEA"/>
<path d="M215.509 116V2.59984H248.829C255.642 2.59984 261.149 3.85984 265.349 6.37985C269.642 8.89985 272.769 12.5865 274.729 17.4398C276.782 22.1998 277.809 27.9865 277.809 34.7998C277.809 42.1732 276.549 48.1465 274.029 52.7198C271.509 57.1998 267.962 60.4665 263.389 62.5198C258.909 64.5732 253.589 65.5999 247.429 65.5999H236.229V116H215.509ZM236.229 51.0399H244.069C247.802 51.0399 250.695 50.5265 252.749 49.4999C254.895 48.3799 256.342 46.6532 257.089 44.3199C257.929 41.8932 258.349 38.6732 258.349 34.6598C258.349 30.5532 258.022 27.2399 257.369 24.7199C256.809 22.1065 255.502 20.1932 253.449 18.9799C251.489 17.7665 248.362 17.1598 244.069 17.1598H236.229V51.0399Z" fill="#EAEAEA"/>
<path d="M313.417 117.54C305.017 117.54 298.484 116 293.817 112.92C289.15 109.84 285.93 105.453 284.157 99.7598C282.384 94.0665 281.497 87.2532 281.497 79.3198V2.59984H301.657V81.6999C301.657 85.2465 301.89 88.6065 302.357 91.7799C302.824 94.8599 303.897 97.3799 305.577 99.3399C307.35 101.207 309.964 102.14 313.417 102.14C317.057 102.14 319.67 101.207 321.257 99.3399C322.937 97.3799 324.01 94.8599 324.477 91.7799C325.037 88.6065 325.317 85.2465 325.317 81.6999V2.59984H345.337V79.3198C345.337 87.2532 344.45 94.0665 342.677 99.7598C340.904 105.453 337.684 109.84 333.017 112.92C328.444 116 321.91 117.54 313.417 117.54Z" fill="#EAEAEA"/>
<path d="M383.194 117.54C376.38 117.54 370.687 116.233 366.114 113.62C361.54 110.913 358.087 106.993 355.754 101.86C353.42 96.7265 352.114 90.4265 351.834 82.9599L369.614 79.4599C369.8 83.8465 370.314 87.7198 371.154 91.0798C372.087 94.4398 373.44 97.0532 375.214 98.9199C377.08 100.693 379.507 101.58 382.494 101.58C385.854 101.58 388.234 100.6 389.634 98.6399C391.034 96.5865 391.734 94.0198 391.734 90.9398C391.734 85.9932 390.614 81.9332 388.374 78.7598C386.134 75.5865 383.147 72.4132 379.414 69.2399L365.134 56.6399C361.12 53.1865 357.9 49.3598 355.474 45.1598C353.14 40.8665 351.974 35.5932 351.974 29.3399C351.974 20.3799 354.587 13.4732 359.814 8.61985C365.04 3.76651 372.18 1.33984 381.234 1.33984C386.554 1.33984 390.987 2.17984 394.534 3.85984C398.08 5.44651 400.88 7.68652 402.934 10.5799C405.08 13.4732 406.667 16.7865 407.694 20.5198C408.72 24.1599 409.374 28.0332 409.654 32.1398L392.014 35.2198C391.827 31.6732 391.407 28.4999 390.754 25.6998C390.194 22.8999 389.12 20.7065 387.534 19.1198C386.04 17.5332 383.8 16.7398 380.814 16.7398C377.734 16.7398 375.354 17.7665 373.674 19.8198C372.087 21.7798 371.294 24.2532 371.294 27.2399C371.294 31.0665 372.087 34.2398 373.674 36.7598C375.26 39.1865 377.547 41.7065 380.534 44.3199L394.674 56.7799C399.34 60.6998 403.307 65.3199 406.574 70.6399C409.934 75.8665 411.614 82.2132 411.614 89.6799C411.614 95.0932 410.4 99.8999 407.974 104.1C405.64 108.3 402.327 111.613 398.034 114.04C393.834 116.373 388.887 117.54 383.194 117.54Z" fill="#EAEAEA"/>
</g>
<path d="M34.06 117.54C25.7533 117.54 19.22 115.907 14.46 112.64C9.79332 109.373 6.52665 104.94 4.65999 99.3399C2.79332 93.6465 1.85999 87.1132 1.85999 79.7399V39.2798C1.85999 31.5332 2.79332 24.8132 4.65999 19.1198C6.52665 13.4265 9.79332 9.03985 14.46 5.95985C19.22 2.87985 25.7533 1.33984 34.06 1.33984C41.9 1.33984 48.0133 2.69318 52.4 5.39985C56.88 8.01318 60.0533 11.7932 61.92 16.7398C63.7867 21.6865 64.72 27.4265 64.72 33.9599V43.4799H44.84V33.6799C44.84 30.5065 44.6533 27.6132 44.28 24.9998C44 22.3865 43.1133 20.3332 41.62 18.8399C40.22 17.2532 37.7467 16.4598 34.2 16.4598C30.6533 16.4598 28.04 17.2999 26.36 18.9799C24.7733 20.5665 23.7467 22.7598 23.28 25.5598C22.8133 28.2665 22.58 31.3465 22.58 34.7998V84.0798C22.58 88.1865 22.9067 91.5932 23.56 94.2999C24.2133 96.9132 25.38 98.9199 27.06 100.32C28.8333 101.627 31.2133 102.28 34.2 102.28C37.6533 102.28 40.08 101.487 41.48 99.8998C42.9733 98.2198 43.9067 96.0265 44.28 93.3199C44.6533 90.6132 44.84 87.5798 44.84 84.2198V73.9998H64.72V83.0999C64.72 89.8199 63.8333 95.7932 62.06 101.02C60.2867 106.153 57.16 110.213 52.68 113.2C48.2933 116.093 42.0867 117.54 34.06 117.54Z" stroke="black" stroke-width="2" mask="url(#path-1-outside-1_63_2)"/>
<path d="M102.945 117.54C94.9188 117.54 88.5255 116.047 83.7655 113.06C79.0055 110.073 75.5988 105.78 73.5455 100.18C71.4921 94.5799 70.4655 87.9532 70.4655 80.2999V37.8798C70.4655 30.2265 71.4921 23.6932 73.5455 18.2799C75.5988 12.7732 79.0055 8.57318 83.7655 5.67985C88.5255 2.78651 94.9188 1.33984 102.945 1.33984C111.159 1.33984 117.599 2.78651 122.265 5.67985C127.025 8.57318 130.432 12.7732 132.485 18.2799C134.632 23.6932 135.705 30.2265 135.705 37.8798V80.4398C135.705 87.9998 134.632 94.5799 132.485 100.18C130.432 105.687 127.025 109.98 122.265 113.06C117.599 116.047 111.159 117.54 102.945 117.54ZM102.945 102.28C106.399 102.28 108.919 101.533 110.505 100.04C112.185 98.5465 113.305 96.4932 113.865 93.8799C114.425 91.2665 114.705 88.4199 114.705 85.3399V33.1199C114.705 29.9465 114.425 27.0998 113.865 24.5798C113.305 22.0598 112.185 20.0999 110.505 18.6998C108.919 17.2065 106.399 16.4598 102.945 16.4598C99.6788 16.4598 97.2055 17.2065 95.5255 18.6998C93.8455 20.0999 92.7255 22.0598 92.1655 24.5798C91.6055 27.0998 91.3255 29.9465 91.3255 33.1199V85.3399C91.3255 88.4199 91.5588 91.2665 92.0255 93.8799C92.5855 96.4932 93.7055 98.5465 95.3855 100.04C97.0655 101.533 99.5855 102.28 102.945 102.28Z" stroke="black" stroke-width="2" mask="url(#path-1-outside-1_63_2)"/>
<path d="M144.032 116V2.59984H171.192C178.846 2.59984 185.286 3.53318 190.512 5.39985C195.832 7.17318 199.846 10.2532 202.552 14.6398C205.352 19.0265 206.752 24.9998 206.752 32.5599C206.752 37.1332 206.332 41.2398 205.492 44.8799C204.652 48.5199 203.206 51.6465 201.152 54.2598C199.192 56.7798 196.439 58.7398 192.892 60.1399L208.712 116H187.992L174.272 64.0598H164.752V116H144.032ZM164.752 51.0399H171.192C175.206 51.0399 178.379 50.4799 180.712 49.3599C183.139 48.1465 184.866 46.2799 185.892 43.7598C186.919 41.1465 187.432 37.8332 187.432 33.8199C187.432 28.1265 186.359 23.8799 184.212 21.0798C182.159 18.1865 178.192 16.7398 172.312 16.7398H164.752V51.0399Z" stroke="black" stroke-width="2" mask="url(#path-1-outside-1_63_2)"/>
<path d="M215.509 116V2.59984H248.829C255.642 2.59984 261.149 3.85984 265.349 6.37985C269.642 8.89985 272.769 12.5865 274.729 17.4398C276.782 22.1998 277.809 27.9865 277.809 34.7998C277.809 42.1732 276.549 48.1465 274.029 52.7198C271.509 57.1998 267.962 60.4665 263.389 62.5198C258.909 64.5732 253.589 65.5999 247.429 65.5999H236.229V116H215.509ZM236.229 51.0399H244.069C247.802 51.0399 250.695 50.5265 252.749 49.4999C254.895 48.3799 256.342 46.6532 257.089 44.3199C257.929 41.8932 258.349 38.6732 258.349 34.6598C258.349 30.5532 258.022 27.2399 257.369 24.7199C256.809 22.1065 255.502 20.1932 253.449 18.9799C251.489 17.7665 248.362 17.1598 244.069 17.1598H236.229V51.0399Z" stroke="black" stroke-width="2" mask="url(#path-1-outside-1_63_2)"/>
<path d="M313.417 117.54C305.017 117.54 298.484 116 293.817 112.92C289.15 109.84 285.93 105.453 284.157 99.7598C282.384 94.0665 281.497 87.2532 281.497 79.3198V2.59984H301.657V81.6999C301.657 85.2465 301.89 88.6065 302.357 91.7799C302.824 94.8599 303.897 97.3799 305.577 99.3399C307.35 101.207 309.964 102.14 313.417 102.14C317.057 102.14 319.67 101.207 321.257 99.3399C322.937 97.3799 324.01 94.8599 324.477 91.7799C325.037 88.6065 325.317 85.2465 325.317 81.6999V2.59984H345.337V79.3198C345.337 87.2532 344.45 94.0665 342.677 99.7598C340.904 105.453 337.684 109.84 333.017 112.92C328.444 116 321.91 117.54 313.417 117.54Z" stroke="black" stroke-width="2" mask="url(#path-1-outside-1_63_2)"/>
<path d="M383.194 117.54C376.38 117.54 370.687 116.233 366.114 113.62C361.54 110.913 358.087 106.993 355.754 101.86C353.42 96.7265 352.114 90.4265 351.834 82.9599L369.614 79.4599C369.8 83.8465 370.314 87.7198 371.154 91.0798C372.087 94.4398 373.44 97.0532 375.214 98.9199C377.08 100.693 379.507 101.58 382.494 101.58C385.854 101.58 388.234 100.6 389.634 98.6399C391.034 96.5865 391.734 94.0198 391.734 90.9398C391.734 85.9932 390.614 81.9332 388.374 78.7598C386.134 75.5865 383.147 72.4132 379.414 69.2399L365.134 56.6399C361.12 53.1865 357.9 49.3598 355.474 45.1598C353.14 40.8665 351.974 35.5932 351.974 29.3399C351.974 20.3799 354.587 13.4732 359.814 8.61985C365.04 3.76651 372.18 1.33984 381.234 1.33984C386.554 1.33984 390.987 2.17984 394.534 3.85984C398.08 5.44651 400.88 7.68652 402.934 10.5799C405.08 13.4732 406.667 16.7865 407.694 20.5198C408.72 24.1599 409.374 28.0332 409.654 32.1398L392.014 35.2198C391.827 31.6732 391.407 28.4999 390.754 25.6998C390.194 22.8999 389.12 20.7065 387.534 19.1198C386.04 17.5332 383.8 16.7398 380.814 16.7398C377.734 16.7398 375.354 17.7665 373.674 19.8198C372.087 21.7798 371.294 24.2532 371.294 27.2399C371.294 31.0665 372.087 34.2398 373.674 36.7598C375.26 39.1865 377.547 41.7065 380.534 44.3199L394.674 56.7799C399.34 60.6998 403.307 65.3199 406.574 70.6399C409.934 75.8665 411.614 82.2132 411.614 89.6799C411.614 95.0932 410.4 99.8999 407.974 104.1C405.64 108.3 402.327 111.613 398.034 114.04C393.834 116.373 388.887 117.54 383.194 117.54Z" stroke="black" stroke-width="2" mask="url(#path-1-outside-1_63_2)"/>
<defs>
<filter id="filter0_i_63_2" x="0.859985" y="0.339844" width="411.754" height="122.2" filterUnits="userSpaceOnUse" color-interpolation-filters="sRGB">
<feFlood flood-opacity="0" result="BackgroundImageFix"/>
<feBlend mode="normal" in="SourceGraphic" in2="BackgroundImageFix" result="shape"/>
<feColorMatrix in="SourceAlpha" type="matrix" values="0 0 0 0 0 0 0 0 0 0 0 0 0 0 0 0 0 0 127 0" result="hardAlpha"/>
<feOffset dy="4"/>
<feGaussianBlur stdDeviation="2"/>
<feComposite in2="hardAlpha" operator="arithmetic" k2="-1" k3="1"/>
<feColorMatrix type="matrix" values="0 0 0 0 0 0 0 0 0 0 0 0 0 0 0 0 0 0 0.25 0"/>
<feBlend mode="normal" in2="shape" result="effect1_innerShadow_63_2"/>
</filter>
</defs>
</svg>
